<?xml version="1.0" encoding="utf-8"?>
<!-- Generator: Adobe Illustrator 16.0.0, SVG Export Plug-In . SVG Version: 6.00 Build 0)  -->
<!DOCTYPE svg PUBLIC "-//W3C//DTD SVG 1.1//EN" "http://www.w3.org/Graphics/SVG/1.1/DTD/svg11.dtd">
<svg enable-background="new 0 0 3975.1 294" height="294px" id="Layer_1" version="1.1" viewBox="0 0 3975.1 294" width="3975.1px"
	 x="0px" xml:space="preserve" xmlns="http://www.w3.org/2000/svg" xmlns:xlink="http://www.w3.org/1999/xlink" y="0px">
<g>
	<polyline points="3974.6,152.13 3929.6,132.53 3902.6,144.53 3865.6,130.53 3865,114.33 3872.6,114.33 3872.6,103.33
		3864.6,103.33 3863.801,80.33 3874.801,80.53 3805.6,39.83 3748.801,86.33 3760.6,84.53 3760.701,84.53 3761.201,103.33
		3754.6,103.33 3754.6,114.33 3761.401,114.33 3761.801,130.33 3754.6,130.33 3754.6,140.33 3762.1,140.33 3762.6,162.53
		3720.6,145.53 3720.6,114.53 3688.6,87.53 3659.6,119.53 3659.6,179.53 3651.6,180.53 3649.6,76.53 3628.6,40.53 3607.6,77.53
		3579.6,80.53 3582.6,183.53 3574.6,183.53 3573.6,156.529 3546.6,140.53 3546.6,104.53 3536.701,98.931 3536.701,84.33
		3530.502,84.33 3530.502,95.33 3511.6,84.53 3482.6,106.53 3438.6,56.53 3397.6,103.53 3395.6,142.53 3388.6,142.53 3384.6,63.53
		3349.6,84.53 3350.6,122.53 3321.6,137.53 3320.801,118.63 3331.6,118.83 3286.6,88.53 3243.1,117.33 3253.502,117.53
		3252.6,185.33 3238.6,188.33 3243.6,78.53 3224.1,68.83 3223.6,47.33 3205.1,46.33 3204.6,63.53 3184.6,57.53 3140.6,74.53
		3138.6,181.53 3125.6,181.53 3126.6,100.53 3088.6,70.53 3054.6,99.53 3053.6,139.33 3037.201,146.83 3037.201,128.33
		3027.002,128.33 3027.002,151.43 3007.6,160.33 3004.6,214.33 2994.6,215.33 2992.6,121.53 2961.6,122.53 2959.6,79.53
		2897.602,43.53 2868.602,63.431 2868.602,52.33 2860.602,52.33 2860.602,68.931 2843.602,80.53 2843.602,123.53 2816.602,129.53
		2815.602,155.529 2791.602,175.33 2790.602,100.53 2795.602,101.53 2797.602,97.53 2757.602,72.53 2719.602,95.53 2719.602,101.53
		2725.602,101.53 2721.602,142.53 2706.602,127.53 2649.602,174.53 2649.602,304.53 3975.1,305.13 	"/>
	<rect fill="#F9E4AF" height="14.701" width="7.301" x="2667.901" y="173.729"/>
	<rect fill="#F9E4AF" height="14.701" width="7.301" x="3018.901" y="161.729"/>
	<rect fill="#F9E4AF" height="14.701" width="7.301" x="3035.6" y="161.729"/>
	<rect fill="#F9E4AF" height="12" width="6.6" x="3071.301" y="119.03"/>
	<rect fill="#F9E4AF" height="14.7" width="7.301" x="3092.901" y="148.33"/>
	<rect fill="#F9E4AF" height="14.7" width="7.301" x="3153.6" y="112.33"/>
	<rect fill="#F9E4AF" height="14.701" width="7.299" x="3154.301" y="85.729"/>
	<rect fill="#F9E4AF" height="14.701" width="7.299" x="2855.602" y="81.729"/>
	<rect fill="#F9E4AF" height="18.7" width="12.801" x="2838.201" y="135.03"/>
	<rect fill="#F9E4AF" height="15.302" width="10.301" x="3204.6" y="176.729"/>
	<rect fill="#F9E4AF" height="12.7" width="7.1" x="3263.502" y="139.729"/>
	<rect fill="#F9E4AF" height="14.7" width="9" x="3411.1" y="105.33"/>
	<rect fill="#F9E4AF" height="12.7" width="7.102" x="3343.1" y="177.33"/>
	<rect fill="#F9E4AF" height="12.699" width="7.102" x="2879.701" y="82.03"/>
	<rect fill="#F9E4AF" height="12.699" width="7.102" x="2969.1" y="150.029"/>
	<rect fill="#F9E4AF" height="8.299" width="7.199" x="3526.002" y="107.931"/>
	<rect fill="#F9E4AF" height="8.299" width="7.199" x="3458.002" y="124.931"/>
	<rect fill="#F9E4AF" height="12.399" width="7.199" x="3591.002" y="92.83"/>
	<rect fill="#F9E4AF" height="14.302" width="9.299" x="3546.801" y="162.729"/>
	<rect fill="#F9E4AF" height="14.701" width="7.301" x="3679.901" y="172.729"/>
	<rect fill="#F9E4AF" height="14.701" width="7.301" x="3700.901" y="123.729"/>
	<rect fill="#F9E4AF" height="14.3" width="10.301" x="3780.6" y="174.33"/>
	<rect fill="#F9E4AF" height="14.302" width="9.5" x="3924.5" y="160.729"/>
	<rect fill="#F9E4AF" height="8.299" width="7.201" x="3769" y="84.931"/>
	<rect fill="#F9E4AF" height="8.299" width="7.201" x="3791" y="83.931"/>
	<rect fill="#F9E4AF" height="8.299" width="7.201" x="3824" y="116.931"/>
	<rect fill="#F9E4AF" height="8.299" width="7.201" x="3801" y="115.931"/>
	<rect fill="#F9E4AF" height="14.7" width="7.301" x="3866.6" y="164.33"/>
	<rect fill="#F9E4AF" height="14.7" width="7.301" x="3592.6" y="122.33"/>
	<rect fill="#F9E4AF" height="12.701" width="7.1" x="3724.502" y="168.729"/>
	<rect fill="#F9E4AF" height="12.701" width="7.1" x="3489.502" y="164.729"/>
	<rect fill="#F9E4AF" height="12.701" width="7.1" x="3365.502" y="90.729"/>
	<rect fill="#F9E4AF" height="14.3" width="9.5" x="3624.801" y="166.33"/>
	<rect fill="#F9E4AF" height="14.701" width="7.301" x="3298.901" y="116.729"/>
	<rect fill="#F9E4AF" height="14.701" width="7.301" x="2737.901" y="106.729"/>
	<rect fill="#F9E4AF" height="14.701" width="7.301" x="2766.901" y="105.729"/>
	<rect fill="#F9E4AF" height="14.701" width="7.301" x="3209.901" y="85.729"/>
	<rect fill="#F9E4AF" height="14.701" width="7.301" x="3300.901" y="187.729"/>
	<rect fill="#F9E4AF" height="14.701" width="7.301" x="3412.901" y="161.729"/>
	<rect fill="#F9E4AF" height="14.7" width="7.301" x="2916.901" y="142.729"/>

		<linearGradient gradientTransform="matrix(1 0 0 -1 -255.1797 -462.6816)" gradientUnits="userSpaceOnUse" id="SVGID_1_" x1="3027.5901" x2="3018.5522" y1="-653.667" y2="-712.8359">
		<stop  offset="0" style="stop-color:#958754"/>
		<stop  offset="1" style="stop-color:#000000"/>
	</linearGradient>
	<path d="M2724.102,248.729c-8-2-14.5-18.198-8.5-22.198s13,0,13,0s-7-9-3-18s15-12,20-7s6,18,6,18
		s4-23,15-18s8,18,8,18s8-12,15-10s7,17,7,17v9c0,0,14-9,17-1s3,14.198,3,14.198H2724.102L2724.102,248.729z" fill="url(#SVGID_1_)"/>

		<linearGradient gradientTransform="matrix(1 0 0 -1 -255.1797 -462.6816)" gradientUnits="userSpaceOnUse" id="SVGID_2_" x1="3146.0491" x2="3143.9246" y1="-699.3428" y2="-710.556">
		<stop  offset="0" style="stop-color:#8E8778"/>
		<stop  offset="1" style="stop-color:#000000"/>
	</linearGradient>
	<path d="M2871.102,248.03c1-6,15.5-16,24.5-10.5s10.5,11.698,10.5,11.698L2871.102,248.03z" fill="url(#SVGID_2_)"/>
	<rect fill="#F9E4AF" height="14.701" width="7.301" x="2868.401" y="169.229"/>
	<rect fill="#F9E4AF" height="13.802" width="4.9" x="2733.301" y="157.229"/>
	<g>

			<linearGradient gradientTransform="matrix(1 0 0 -1 -255.1797 -462.6816)" gradientUnits="userSpaceOnUse" id="SVGID_3_" x1="3511.0911" x2="3508.4092" y1="-672.7944" y2="-706.1758">
			<stop  offset="0" style="stop-color:#958754"/>
			<stop  offset="1" style="stop-color:#000000"/>
		</linearGradient>
		<path d="M3230.401,243.729c-4.5-1.198-8.199-11.398-4.801-13.799c3.4-2.399,7.4,0,7.4,0
			s-4-5.601-1.699-11.201c2.299-5.6,8.5-7.5,11.4-4.398c2.799,3.1,3.398,11.2,3.398,11.2s2.301-14.302,8.5-11.2
			c6.199,3.1,4.5,11.2,4.5,11.2s4.5-7.5,8.5-6.2c4,1.2,4,10.6,4,10.6v5.602c0,0,7.9-5.602,9.699-0.602c1.701,5,1.701,8.9,1.701,8.9
			L3230.401,243.729L3230.401,243.729z" fill="url(#SVGID_3_)"/>

			<linearGradient gradientTransform="matrix(1 0 0 -1 -255.1797 -462.6816)" gradientUnits="userSpaceOnUse" id="SVGID_4_" x1="3438.7141" x2="3437.241" y1="-696.7954" y2="-704.572">
			<stop  offset="0" style="stop-color:#8E8778"/>
			<stop  offset="1" style="stop-color:#000000"/>
		</linearGradient>
		<path d="M3170.1,242.03c0.701-4.2,10.5-11.2,16.602-7.302c6.1,3.9,7.1,8.201,7.1,8.201L3170.1,242.03z" fill="url(#SVGID_4_)"/>

			<linearGradient gradientTransform="matrix(0.9999 -0.0146 -0.0146 -0.9999 -253.0568 -380.7853)" gradientUnits="userSpaceOnUse" id="SVGID_5_" x1="3458.5608" x2="3455.7644" y1="-659.1616" y2="-673.9215">
			<stop  offset="0" style="stop-color:#8E8778"/>
			<stop  offset="1" style="stop-color:#000000"/>
		</linearGradient>
		<path d="M3188.201,243.03c1.199-7.802,20.801-21.101,33.199-14.101c12.4,7,14.5,15,14.5,15L3188.201,243.03
			z" fill="url(#SVGID_5_)"/>
	</g>
	<g>

			<linearGradient gradientTransform="matrix(1 0 0 -1 -255.1797 -462.6816)" gradientUnits="userSpaceOnUse" id="SVGID_6_" x1="3769.8372" x2="3746.2148" y1="-660.8428" y2="-712.8624">
			<stop  offset="0" style="stop-color:#958754"/>
			<stop  offset="1" style="stop-color:#000000"/>
		</linearGradient>
		<path d="M3452.401,251.03c-8.5-2.302-15.301-21.4-9-26.101c6.301-4.701,13.801,0,13.801,0
			s-7.4-10.601-3.199-21.101c4.199-10.601,15.898-14.101,21.199-8.2s6.301,21.1,6.301,21.1s4.199-27,15.898-21.1
			c11.602,5.9,8.5,21.1,8.5,21.1s8.5-14.1,15.9-11.698c7.4,2.399,7.4,20,7.4,20v10.6c0,0,14.799-10.6,18-1.2
			c3.199,9.4,3.199,16.7,3.199,16.7L3452.401,251.03L3452.401,251.03z" fill="url(#SVGID_6_)"/>

			<linearGradient gradientTransform="matrix(1 0.0048 0.0048 -1 -255.3667 -485.7322)" gradientUnits="userSpaceOnUse" id="SVGID_7_" x1="3749.2688" x2="3746.4724" y1="-699.9277" y2="-714.6885">
			<stop  offset="0" style="stop-color:#8E8778"/>
			<stop  offset="1" style="stop-color:#000000"/>
		</linearGradient>
		<path d="M3463.701,246.93c1.398-7.8,21.199-20.699,33.398-13.5c12.201,7.2,14.201,15.301,14.201,15.301
			L3463.701,246.93z" fill="url(#SVGID_7_)"/>

			<linearGradient gradientTransform="matrix(1 0 0 -1 -255.1797 -462.6816)" gradientUnits="userSpaceOnUse" id="SVGID_8_" x1="3836.9543" x2="3828.7998" y1="-686.2617" y2="-704.2191">
			<stop  offset="0" style="stop-color:#958754"/>
			<stop  offset="1" style="stop-color:#000000"/>
		</linearGradient>
		<path d="M3548.401,251.729c-4.5-1.198-8.199-11.398-4.801-13.799c3.4-2.399,7.4,0,7.4,0
			s-4-5.601-1.699-11.201c2.299-5.6,8.5-7.5,11.4-4.398c2.799,3.1,3.398,11.2,3.398,11.2s2.301-14.302,8.5-11.2
			c6.199,3.1,4.5,11.2,4.5,11.2s4.5-7.5,8.5-6.2c4,1.2,4,10.6,4,10.6v5.602c0,0,7.9-5.602,9.699-0.602c1.701,5,1.701,8.9,1.701,8.9
			L3548.401,251.729L3548.401,251.729z" fill="url(#SVGID_8_)"/>

			<linearGradient gradientTransform="matrix(-0.9059 0 0 -1 11696.2041 -462.6816)" gradientUnits="userSpaceOnUse" id="SVGID_9_" x1="8679.9932" x2="8680.0303" y1="-654.9321" y2="-713.8909">
			<stop  offset="0" style="stop-color:#958754"/>
			<stop  offset="1" style="stop-color:#000000"/>
		</linearGradient>
		<path d="M3870.301,249.729c7.299-2.198,13.299-19.698,7.799-24c-5.5-4.299-11.898,0-11.898,0
			s6.398-9.698,2.699-19.5c-3.699-9.698-13.699-13-18.301-7.6c-4.6,5.4-5.5,19.5-5.5,19.5s-3.699-24.9-13.699-19.5
			c-10.1,5.4-7.301,19.5-7.301,19.5s-7.299-13-13.699-10.8s-6.4,18.399-6.4,18.399v9.699c0,0-12.799-9.699-15.6-1.1
			c-2.699,8.6-2.699,15.3-2.699,15.3h84.6V249.729L3870.301,249.729z" fill="url(#SVGID_9_)"/>

			<linearGradient gradientTransform="matrix(1 0.0048 0.0048 -1 -255.3667 -485.7322)" gradientUnits="userSpaceOnUse" id="SVGID_10_" x1="4136.6533" x2="4133.8569" y1="-700.7466" y2="-715.5085">
			<stop  offset="0" style="stop-color:#8E8778"/>
			<stop  offset="1" style="stop-color:#000000"/>
		</linearGradient>
		<path d="M3851.1,249.53c1.4-7.802,21.201-20.7,33.4-13.5c12.199,7.198,14.199,15.3,14.199,15.3
			L3851.1,249.53z" fill="url(#SVGID_10_)"/>

			<linearGradient gradientTransform="matrix(0.6506 0.0031 0.004 -0.8413 1942.9032 -481.6818)" gradientUnits="userSpaceOnUse" id="SVGID_11_" x1="3038.804" x2="3036.0078" y1="-844.3623" y2="-859.1215">
			<stop  offset="0" style="stop-color:#8E8778"/>
			<stop  offset="1" style="stop-color:#000000"/>
		</linearGradient>
		<path d="M3899.1,250.43c0.9-6.6,13.801-17.398,21.801-11.398s9.199,12.8,9.199,12.8L3899.1,250.43z" fill="url(#SVGID_11_)"/>
	</g>
</g>
<g id="_x3C_Background_x3E__xA0_0_xA0_Image_1_">

		<image display="none" enable-background="new    " height="467" id="_x3C_Background_x3E__xA0_0_xA0_Image" overflow="visible" transform="matrix(0.7484 0 0 0.7484 -33.2083 6.5244)" width="856"  xlink:href="C:\Users\Eva\Desktop\cat\Nueva carpeta\A3B6AF9F.png">
	</image>
</g>
<g id="Image_xA0_1_xA0_Image_1_">

		<image display="none" enable-background="new    " height="455" id="Image_xA0_1_xA0_Image" overflow="visible" transform="matrix(0.7494 0 0 0.7494 -30.6335 15.167)" width="853"  xlink:href="C:\Users\Eva\Desktop\cat\Nueva carpeta\A3B6AF9D.png">
	</image>
</g>
<g id="Image_xA0_2_xA0_Image_1_">

		<image display="none" enable-background="new    " height="465" id="Image_xA0_2_xA0_Image" overflow="visible" transform="matrix(0.7494 0 0 0.7494 -31.781 5.5703)" width="855"  xlink:href="C:\Users\Eva\Desktop\cat\Nueva carpeta\A3B6AFA3.png">
	</image>
</g>
<g id="Image_xA0_3_xA0_Image_1_">

		<image display="none" enable-background="new    " height="468" id="Image_xA0_3_xA0_Image" overflow="visible" transform="matrix(0.7487 0 0 0.7487 -31.4675 4.5791)" width="855"  xlink:href="C:\Users\Eva\Desktop\cat\Nueva carpeta\A3B6AFA5.png">
	</image>
</g>
<g id="Image_xA0_4_xA0_Image_1_">

		<image display="none" enable-background="new    " height="468" id="Image_xA0_4_xA0_Image" overflow="visible" transform="matrix(0.748 0 0 0.748 -31.5515 4.7383)" width="855"  xlink:href="C:\Users\Eva\Desktop\cat\Nueva carpeta\A3B6AFA7.png">
	</image>
</g>
<g id="Image_xA0_5_xA0_Image_1_">

		<image display="none" enable-background="new    " height="468" id="Image_xA0_5_xA0_Image" overflow="visible" transform="matrix(0.7487 0 0 0.7487 -31.4675 3.5791)" width="855"  xlink:href="C:\Users\Eva\Desktop\cat\Nueva carpeta\A3B6AFA4.png">
	</image>
</g>
<g id="Image_xA0_6_xA0_Image_1_">

		<image display="none" enable-background="new    " height="467" id="Image_xA0_6_xA0_Image" overflow="visible" transform="matrix(0.7487 0 0 0.7487 -31.4661 4.9131)" width="855"  xlink:href="C:\Users\Eva\Desktop\cat\Nueva carpeta\A3B6AFAC.png">
	</image>
</g>
<g id="Image_xA0_7_xA0_Image_1_">

		<image display="none" enable-background="new    " height="465" id="Image_xA0_7_xA0_Image" overflow="visible" transform="matrix(0.7487 0 0 0.7487 -31.467 5.8291)" width="855"  xlink:href="C:\Users\Eva\Desktop\cat\Nueva carpeta\A3B6AFAD.png">
	</image>
</g>
<g id="Image_xA0_8_xA0_Image_1_">

		<image display="none" enable-background="new    " height="467" id="Image_xA0_8_xA0_Image" overflow="visible" transform="matrix(0.7487 0 0 0.7487 -31.4661 7.2451)" width="855"  xlink:href="C:\Users\Eva\Desktop\cat\Nueva carpeta\A3B6AFAF.png">
	</image>
</g>
<g id="Image_xA0_9_xA0_Image_1_">

		<image display="none" enable-background="new    " height="467" id="Image_xA0_9_xA0_Image" overflow="visible" transform="matrix(0.7487 0 0 0.7487 -31.4661 7.9131)" width="855"  xlink:href="C:\Users\Eva\Desktop\cat\Nueva carpeta\A967620C.png">
	</image>
</g>
<g id="Layer_10_xA0_Image_1_">

		<image display="none" enable-background="new    " height="467" id="Layer_10_xA0_Image" overflow="visible" transform="matrix(0.7487 0 0 0.7487 -31.4661 6.9131)" width="855"  xlink:href="C:\Users\Eva\Desktop\cat\Nueva carpeta\A967620B.png">
	</image>
</g>
<g id="Image_xA0_11_xA0_Image_1_">

		<image display="none" enable-background="new    " height="468" id="Image_xA0_11_xA0_Image" overflow="visible" transform="matrix(0.7487 0 0 0.7487 -31.4675 -0.4209)" width="855"  xlink:href="C:\Users\Eva\Desktop\cat\Nueva carpeta\A9676204.png">
	</image>
</g>
<g id="Image_xA0_12_xA0_Image_1_">

		<image display="none" enable-background="new    " height="468" id="Image_xA0_12_xA0_Image" overflow="visible" transform="matrix(0.7487 0 0 0.7487 -31.4675 -0.4209)" width="855"  xlink:href="C:\Users\Eva\Desktop\cat\Nueva carpeta\A9676207.png">
	</image>
</g>
<g id="Image_xA0_13_xA0_Image_1_">

		<image display="none" enable-background="new    " height="468" id="Image_xA0_13_xA0_Image" overflow="visible" transform="matrix(0.7487 0 0 0.7487 -31.4675 -0.4209)" width="855"  xlink:href="C:\Users\Eva\Desktop\cat\Nueva carpeta\A9676205.png">
	</image>
</g>
<g id="Image_xA0_14_xA0_Image_1_">

		<image display="none" enable-background="new    " height="468" id="Image_xA0_14_xA0_Image" overflow="visible" transform="matrix(0.7487 0 0 0.7487 -31.4675 -0.4209)" width="855"  xlink:href="C:\Users\Eva\Desktop\cat\Nueva carpeta\A967621B.png">
	</image>
</g>
<image display="none" enable-background="new    " height="468" id="Image_xA0_15_xA0_Image" overflow="visible" transform="matrix(0.7487 0 0 0.7487 -31.4675 -0.4209)" width="855"  xlink:href="C:\Users\Eva\Desktop\cat\Nueva carpeta\A967621C.png">
</image>
<polyline points="2653.4,303.3 2650.999,121.1 2595.699,105.8 2594.4,157.1 2555.699,181.3 2555.699,161.3 2542.4,146.8
	2542.4,134.4 2537.699,134.4 2537.699,141.7 2511.699,113.3 2461.699,163.3 2457.699,211.3 2445.699,193.8 2445.699,94.4
	2420.999,63.8 2390.999,96.4 2389.699,191.3 2378.499,192.5 2375.699,154.3 2332.699,114.3 2300.699,149.3 2270.699,151.3
	2269.699,193.3 2255.699,190.3 2254.6,167.8 2260.4,167.8 2260.4,150.4 2253.8,150.4 2253.199,137.1 2259.699,137.1 2259.699,122.4
	2252.499,122.4 2251.8,108.5 2262.999,108.1 2226.4,92.8 2226.4,83.1 2220.999,83.1 2220.999,90.6 2189.4,77.4 2129.4,112.4
	2140.1,112.1 2143.699,147.3 2077.699,168.3 2075.699,197.3 2047.699,183.3 2047.699,141.3 2001.699,118.3 1961.699,139.3
	1960.699,171.3 1948.699,160.3 1947.699,102.3 1904.699,75.3 1883.699,88.3 1883.699,76.1 1870.699,76.1 1870.699,96.3
	1857.699,104.3 1856.699,136.3 1826.699,163.3 1826.699,222.3 1801.699,213.3 1800.699,194.1 1808.699,194.1 1808.699,181.1
	1799.999,181.1 1799.4,169.6 1807.199,169.6 1807.199,156.6 1798.699,156.6 1797.699,137.3 1751.699,110.3 1706.699,135.3
	1703.699,187.3 1666.699,165.3 1630.699,189.3 1630.8,179.6 1636.199,179.6 1636.199,166.6 1630.9,166.6 1630.999,156.1
	1636.699,156.1 1636.699,143.1 1631.1,143.1 1631.199,129.6 1637.199,129.6 1637.199,116.6 1631.4,116.6 1631.699,78.3
	1601.699,76.3 1600.699,91.3 1557.699,75.3 1539.699,81.2 1539.699,68.1 1531.699,68.1 1531.699,83.8 1502.699,93.3 1500.699,168.3
	1486.699,166.3 1484.699,143.3 1459.699,110.3 1436.699,140.3 1415.699,141.3 1413.699,189.3 1405.699,189.3 1404.699,98.3
	1366.699,78.3 1325.699,98.3 1324.4,305.3 2379.699,305.3 2386.699,305.3 "/>
<rect fill="#F9E4AF" height="14.7" width="7.3" x="1719.699" y="141.8"/>
<rect fill="#F9E4AF" height="14.7" width="7.3" x="1751.699" y="165.8"/>
<rect fill="#F9E4AF" height="14.7" width="7.3" x="1613.699" y="86.8"/>
<rect fill="#F9E4AF" height="14.7" width="7.3" x="1643.699" y="194.8"/>
<rect fill="#F9E4AF" height="14.7" width="7.3" x="1840.699" y="167.8"/>
<rect fill="#F9E4AF" height="14.7" width="7.3" x="1949.699" y="184.8"/>
<rect fill="#F9E4AF" height="14.7" width="7.3" x="1680.699" y="194.8"/>
<rect fill="#F9E4AF" height="14.7" width="7.3" x="1514.699" y="175.8"/>
<rect fill="#F9E4AF" height="8.3" width="7.199" x="1338.8" y="110"/>
<rect fill="#F9E4AF" height="14.7" width="7.301" x="1371.4" y="131.4"/>
<rect fill="#F9E4AF" height="14.701" width="7.301" x="1887.4" y="182.398"/>
<rect fill="#F9E4AF" height="14.7" width="7.301" x="1611.4" y="121.4"/>
<rect fill="#F9E4AF" height="14.701" width="7.301" x="1719.4" y="197.398"/>
<rect fill="#F9E4AF" height="14.7" width="7.301" x="1927.4" y="111.4"/>
<rect fill="#F9E4AF" height="14.7" width="7.301" x="1977.4" y="145.4"/>
<rect fill="#F9E4AF" height="12.7" width="7.1" x="1427.3" y="156.8"/>
<rect fill="#F9E4AF" height="13.3" width="10.301" x="1454.4" y="180.8"/>
<rect fill="#F9E4AF" height="13" width="8.699" x="2050.699" y="206.8"/>
<rect fill="#F9E4AF" height="15" width="8.399" x="2093.699" y="176.8"/>
<rect fill="#F9E4AF" height="18.7" width="12.8" x="2224.699" y="112.8"/>
<rect fill="#F9E4AF" height="12.7" width="7.1" x="1927.3" y="139.8"/>
<rect fill="#F9E4AF" height="12.7" width="7.1" x="2283.3" y="165.8"/>
<rect fill="#F9E4AF" height="12.7" width="7.1" x="1519.3" y="106.8"/>
<rect fill="#F9E4AF" height="12.7" width="7.1" x="2012.3" y="145.8"/>
<rect fill="#F9E4AF" height="12.7" width="7.1" x="2283.3" y="191.8"/>
<rect fill="#F9E4AF" height="14.7" width="7.3" x="2162.699" y="117.8"/>
<rect fill="#F9E4AF" height="14.7" width="7.3" x="2133.699" y="176.8"/>
<rect fill="#F9E4AF" height="14.7" width="7.3" x="2405.699" y="124.8"/>
<rect fill="#F9E4AF" height="14.7" width="7.3" x="2226.699" y="155.8"/>
<rect fill="#F9E4AF" height="14.7" width="7.3" x="2348.699" y="161.8"/>
<rect fill="#F9E4AF" height="14.7" width="7.3" x="2406.699" y="158.8"/>
<rect fill="#F9E4AF" height="12.7" width="7.1" x="2480.3" y="166.8"/>
<rect fill="#F9E4AF" height="12.7" width="7.1" x="2504.3" y="165.8"/>
<rect fill="#F9E4AF" height="12.7" width="7.1" x="2480.3" y="198.8"/>
<rect fill="#F9E4AF" height="18.7" width="12.8" x="2615.699" y="161.8"/>
<g>

		<linearGradient gradientTransform="matrix(0.5251 0.0025 0.0029 -0.6084 2732.6924 -487.1666)" gradientUnits="userSpaceOnUse" id="SVGID_12_" x1="-2626.4402" x2="-2629.2358" y1="-1209.2944" y2="-1224.0519">
		<stop  offset="0" style="stop-color:#8E8778"/>
		<stop  offset="1" style="stop-color:#000000"/>
	</linearGradient>
	<path d="M1335.9,250.898c0.7-4.698,11.102-12.6,17.602-8.198c6.398,4.399,7.5,9.3,7.5,9.3L1335.9,250.898z" fill="url(#SVGID_12_)"
		/>
</g>
<g>

		<linearGradient gradientTransform="matrix(-0.9059 0 0 -1 11696.2041 -462.6816)" gradientUnits="userSpaceOnUse" id="SVGID_13_" x1="10925.4131" x2="10946.5762" y1="-654.3628" y2="-709.3927">
		<stop  offset="0" style="stop-color:#958754"/>
		<stop  offset="1" style="stop-color:#000000"/>
	</linearGradient>
	<path d="M1820.1,249.1c7.3-2.199,13.3-19.699,7.8-24c-5.5-4.3-11.898,0-11.898,0s6.398-9.699,2.699-19.5
		c-3.699-9.699-13.699-13-18.301-7.6c-4.6,5.398-5.5,19.5-5.5,19.5s-3.699-24.9-13.699-19.5c-10.101,5.398-7.301,19.5-7.301,19.5
		s-7.3-13-13.699-10.8c-6.399,2.198-6.399,18.399-6.399,18.399v9.699c0,0-12.801-9.699-15.601-1.1c-2.699,8.6-2.699,15.3-2.699,15.3
		h84.6L1820.1,249.1L1820.1,249.1z" fill="url(#SVGID_13_)"/>

		<linearGradient gradientTransform="matrix(1 0.0048 0.0048 -1 -255.3667 -485.7322)" gradientUnits="userSpaceOnUse" id="SVGID_14_" x1="2086.5071" x2="2083.7107" y1="-710.0142" y2="-724.7745">
		<stop  offset="0" style="stop-color:#8E8778"/>
		<stop  offset="1" style="stop-color:#000000"/>
	</linearGradient>
	<path d="M1800.9,249c1.4-7.8,21.2-20.7,33.4-13.5s14.199,15.3,14.199,15.3L1800.9,249z" fill="url(#SVGID_14_)"/>

		<linearGradient gradientTransform="matrix(0.6506 0.0031 0.004 -0.8413 1942.9032 -481.6818)" gradientUnits="userSpaceOnUse" id="SVGID_15_" x1="-112.365" x2="-115.161" y1="-855.2959" y2="-870.0549">
		<stop  offset="0" style="stop-color:#8E8778"/>
		<stop  offset="1" style="stop-color:#000000"/>
	</linearGradient>
	<path d="M1848.9,249.898c0.9-6.6,13.801-17.398,21.801-11.398c7.899,6.1,9.199,12.8,9.199,12.8
		L1848.9,249.898z" fill="url(#SVGID_15_)"/>

		<linearGradient gradientTransform="matrix(0.5251 0.0025 0.0029 -0.6084 2732.6924 -487.1666)" gradientUnits="userSpaceOnUse" id="SVGID_16_" x1="-1527.6638" x2="-1530.4598" y1="-1200.4077" y2="-1215.1665">
		<stop  offset="0" style="stop-color:#8E8778"/>
		<stop  offset="1" style="stop-color:#000000"/>
	</linearGradient>
	<path d="M1912.9,248.2c0.7-4.7,11.102-12.601,17.602-8.2c6.398,4.398,7.5,9.3,7.5,9.3L1912.9,248.2z" fill="url(#SVGID_16_)"/>
</g>
<linearGradient gradientTransform="matrix(0.5251 0.0025 0.0029 -0.6084 2732.6924 -487.1666)" gradientUnits="userSpaceOnUse" id="SVGID_17_" x1="-1910.5789" x2="-1913.3752" y1="-1205.9365" y2="-1220.6968">
	<stop  offset="0" style="stop-color:#8E8778"/>
	<stop  offset="1" style="stop-color:#000000"/>
</linearGradient>
<path d="M1711.8,250.7c0.699-4.7,11.1-12.601,17.6-8.2c6.4,4.398,7.5,9.3,7.5,9.3L1711.8,250.7z" fill="url(#SVGID_17_)"/>
<linearGradient gradientTransform="matrix(1.3102 0.0062 0.0049 -1.0312 -3424.9109 -480.4559)" gradientUnits="userSpaceOnUse" id="SVGID_18_" x1="4241.9209" x2="4239.1255" y1="-664.7319" y2="-679.4897">
	<stop  offset="0" style="stop-color:#8E8778"/>
	<stop  offset="1" style="stop-color:#000000"/>
</linearGradient>
<path d="M2094.4,246.433c1.801-8,27.801-21.3,43.801-13.898c16,7.5,18.699,15.8,18.699,15.8L2094.4,246.433z
	" fill="url(#SVGID_18_)"/>
<linearGradient gradientTransform="matrix(0.5251 0.0025 0.0029 -0.6084 2732.6924 -487.1666)" gradientUnits="userSpaceOnUse" id="SVGID_19_" x1="-1049.6399" x2="-1052.4357" y1="-1202.564" y2="-1217.3225">
	<stop  offset="0" style="stop-color:#8E8778"/>
	<stop  offset="1" style="stop-color:#000000"/>
</linearGradient>
<path d="M2163.9,250.731c0.7-4.698,11.102-12.6,17.602-8.198c6.398,4.399,7.5,9.3,7.5,9.3L2163.9,250.731z" fill="url(#SVGID_19_)"
	/>
<g>

		<linearGradient gradientTransform="matrix(1 0 0 -1 -255.1797 -462.6816)" gradientUnits="userSpaceOnUse" id="SVGID_20_" x1="2696.7375" x2="2688.5833" y1="-684.3628" y2="-702.3203">
		<stop  offset="0" style="stop-color:#958754"/>
		<stop  offset="1" style="stop-color:#000000"/>
	</linearGradient>
	<path d="M2408.199,249.8c-4.5-1.2-8.2-11.399-4.801-13.8s7.399,0,7.399,0s-4-5.602-1.699-11.2
		c2.301-5.6,8.5-7.5,11.399-4.399c2.8,3.101,3.4,11.199,3.4,11.199s2.3-14.3,8.5-11.199c6.198,3.101,4.5,11.199,4.5,11.199
		s4.5-7.5,8.5-6.199c4,1.199,4,10.601,4,10.601v5.601c0,0,7.898-5.601,9.698-0.601c1.7,5,1.7,8.899,1.7,8.899L2408.199,249.8
		L2408.199,249.8z" fill="url(#SVGID_20_)"/>

		<linearGradient gradientTransform="matrix(1 0 0 -1 -255.1797 -462.6816)" gradientUnits="userSpaceOnUse" id="SVGID_21_" x1="2616.5081" x2="2615.0352" y1="-702.9014" y2="-710.6762">
		<stop  offset="0" style="stop-color:#8E8778"/>
		<stop  offset="1" style="stop-color:#000000"/>
	</linearGradient>
	<path d="M2347.9,248.1c0.7-4.199,10.5-11.199,16.602-7.3c6.1,3.9,7.1,8.2,7.1,8.2L2347.9,248.1z" fill="url(#SVGID_21_)"/>

		<linearGradient gradientTransform="matrix(0.9999 -0.0146 -0.0146 -0.9999 -253.0568 -380.7853)" gradientUnits="userSpaceOnUse" id="SVGID_22_" x1="2636.3567" x2="2633.561" y1="-653.2651" y2="-668.0223">
		<stop  offset="0" style="stop-color:#8E8778"/>
		<stop  offset="1" style="stop-color:#000000"/>
	</linearGradient>
	<path d="M2365.999,249.1c1.2-7.8,20.801-21.1,33.2-14.1s14.5,15,14.5,15L2365.999,249.1z" fill="url(#SVGID_22_)"/>
</g>
<g>
	<polyline points="1324.999,152.3 1279.999,132.7 1252.999,144.7 1215.999,130.7 1215.4,114.5 1222.999,114.5 1222.999,103.5
		1214.999,103.5 1214.199,80.5 1225.199,80.7 1155.999,40 1099.199,86.5 1110.999,84.7 1111.1,84.7 1111.6,103.5 1104.999,103.5
		1104.999,114.5 1111.8,114.5 1112.199,130.5 1104.999,130.5 1104.999,140.5 1112.499,140.5 1112.999,162.7 1070.999,145.7
		1070.999,114.7 1038.999,87.7 1009.999,119.7 1009.999,179.7 1001.999,180.7 999.999,76.7 978.999,40.7 957.999,77.7 929.999,80.7
		932.999,183.7 924.999,183.7 923.999,156.699 896.999,140.7 896.999,104.7 887.101,99.1 887.101,84.5 880.901,84.5 880.901,95.5
		861.999,84.7 832.999,106.7 788.999,56.7 747.999,103.7 745.999,142.7 738.999,142.7 734.999,63.7 699.999,84.7 700.999,122.7
		671.999,137.7 671.199,118.8 681.999,119 636.999,88.7 593.499,117.5 603.901,117.7 602.999,185.5 588.999,188.5 593.999,78.7
		574.499,69 573.999,47.5 555.499,46.5 554.999,63.7 534.999,57.7 490.999,74.7 488.999,181.7 475.999,181.7 476.999,100.7
		438.999,70.7 404.999,99.7 403.999,139.5 387.601,147 387.601,128.5 377.401,128.5 377.401,151.6 357.999,160.5 354.999,214.5
		344.999,215.5 342.999,121.7 311.999,122.7 309.999,79.7 248,43.7 219,63.6 219,52.5 211,52.5 211,69.1 194,80.7 194,123.7
		167,129.7 166,155.699 142,175.5 141,100.7 146,101.7 148,97.7 108,72.7 70,95.7 70,101.7 76,101.7 72,142.7 57,127.7 0,174.7
		0,304.7 1325.499,305.3 	"/>
	<rect fill="#F9E4AF" height="14.701" width="7.301" x="18.3" y="173.898"/>
	<rect fill="#F9E4AF" height="14.701" width="7.301" x="369.3" y="161.898"/>
	<rect fill="#F9E4AF" height="14.701" width="7.301" x="385.999" y="161.898"/>
	<rect fill="#F9E4AF" height="12" width="6.601" x="421.699" y="119.2"/>
	<rect fill="#F9E4AF" height="14.7" width="7.301" x="443.3" y="148.5"/>
	<rect fill="#F9E4AF" height="14.7" width="7.301" x="503.999" y="112.5"/>
	<rect fill="#F9E4AF" height="14.7" width="7.3" x="504.699" y="85.9"/>
	<rect fill="#F9E4AF" height="14.7" width="7.3" x="206" y="81.9"/>
	<rect fill="#F9E4AF" height="18.7" width="12.8" x="188.601" y="135.2"/>
	<rect fill="#F9E4AF" height="15.302" width="10.301" x="554.999" y="176.898"/>
	<rect fill="#F9E4AF" height="12.7" width="7.101" x="613.901" y="139.9"/>
	<rect fill="#F9E4AF" height="14.7" width="9" x="761.499" y="105.5"/>
	<rect fill="#F9E4AF" height="12.7" width="7.102" x="693.499" y="177.5"/>
	<rect fill="#F9E4AF" height="12.7" width="7.101" x="230.101" y="82.2"/>
	<rect fill="#F9E4AF" height="12.699" width="7.102" x="319.499" y="150.199"/>
	<rect fill="#F9E4AF" height="8.3" width="7.2" x="876.401" y="108.1"/>
	<rect fill="#F9E4AF" height="8.3" width="7.2" x="808.401" y="125.1"/>
	<rect fill="#F9E4AF" height="12.4" width="7.2" x="941.401" y="93"/>
	<rect fill="#F9E4AF" height="14.302" width="9.3" x="897.199" y="162.898"/>
	<rect fill="#F9E4AF" height="14.701" width="7.301" x="1030.3" y="172.898"/>
	<rect fill="#F9E4AF" height="14.7" width="7.301" x="1051.3" y="123.9"/>
	<rect fill="#F9E4AF" height="14.3" width="10.301" x="1130.999" y="174.5"/>
	<rect fill="#F9E4AF" height="14.302" width="9.5" x="1274.9" y="160.898"/>
	<rect fill="#F9E4AF" height="8.3" width="7.2" x="1119.4" y="85.1"/>
	<rect fill="#F9E4AF" height="8.3" width="7.2" x="1141.4" y="84.1"/>
	<rect fill="#F9E4AF" height="8.3" width="7.2" x="1174.4" y="117.1"/>
	<rect fill="#F9E4AF" height="8.3" width="7.2" x="1151.4" y="116.1"/>
	<rect fill="#F9E4AF" height="14.7" width="7.301" x="1216.999" y="164.5"/>
	<rect fill="#F9E4AF" height="14.7" width="7.301" x="942.999" y="122.5"/>
	<rect fill="#F9E4AF" height="12.701" width="7.101" x="1074.901" y="168.898"/>
	<rect fill="#F9E4AF" height="12.701" width="7.101" x="839.901" y="164.898"/>
	<rect fill="#F9E4AF" height="12.7" width="7.101" x="715.901" y="90.9"/>
	<rect fill="#F9E4AF" height="14.3" width="9.5" x="975.199" y="166.5"/>
	<rect fill="#F9E4AF" height="14.7" width="7.301" x="649.3" y="116.9"/>
	<rect fill="#F9E4AF" height="14.7" width="7.301" x="88.3" y="106.9"/>
	<rect fill="#F9E4AF" height="14.7" width="7.301" x="117.3" y="105.9"/>
	<rect fill="#F9E4AF" height="14.7" width="7.301" x="560.3" y="85.9"/>
	<rect fill="#F9E4AF" height="14.701" width="7.301" x="651.3" y="187.898"/>
	<rect fill="#F9E4AF" height="14.701" width="7.301" x="763.3" y="161.898"/>
	<rect fill="#F9E4AF" height="14.7" width="7.301" x="267.3" y="142.9"/>

		<linearGradient gradientTransform="matrix(1 0 0 -1 -255.1797 -462.6816)" gradientUnits="userSpaceOnUse" id="SVGID_23_" x1="377.988" x2="368.9502" y1="-653.8374" y2="-713.0063">
		<stop  offset="0" style="stop-color:#958754"/>
		<stop  offset="1" style="stop-color:#000000"/>
	</linearGradient>
	<path d="M74.5,248.898c-8-2-14.5-18.198-8.5-22.198s13,0,13,0s-7-9-3-18s15-12,20-7s6,18,6,18s4-23,15-18
		s8,18,8,18s8-12,15-10s7,17,7,17v9c0,0,14-9,17-1s3,14.198,3,14.198H74.5L74.5,248.898z" fill="url(#SVGID_23_)"/>

		<linearGradient gradientTransform="matrix(1 0 0 -1 -255.1797 -462.6816)" gradientUnits="userSpaceOnUse" id="SVGID_24_" x1="496.4485" x2="494.324" y1="-699.5127" y2="-710.7259">
		<stop  offset="0" style="stop-color:#8E8778"/>
		<stop  offset="1" style="stop-color:#000000"/>
	</linearGradient>
	<path d="M221.5,248.2c1-6,15.5-16,24.5-10.5s10.5,11.698,10.5,11.698L221.5,248.2z" fill="url(#SVGID_24_)"/>
	<rect fill="#F9E4AF" height="14.701" width="7.301" x="218.8" y="169.398"/>
	<rect fill="#F9E4AF" height="13.802" width="4.899" x="83.7" y="157.398"/>
	<g>

			<linearGradient gradientTransform="matrix(1 0 0 -1 -255.1797 -462.6816)" gradientUnits="userSpaceOnUse" id="SVGID_25_" x1="861.49" x2="858.8082" y1="-672.9648" y2="-706.3452">
			<stop  offset="0" style="stop-color:#958754"/>
			<stop  offset="1" style="stop-color:#000000"/>
		</linearGradient>
		<path d="M580.8,243.898c-4.5-1.198-8.199-11.398-4.801-13.799c3.4-2.399,7.4,0,7.4,0s-4-5.601-1.7-11.201
			c2.3-5.6,8.5-7.5,11.4-4.398c2.8,3.1,3.399,11.2,3.399,11.2s2.3-14.302,8.5-11.2c6.199,3.1,4.5,11.2,4.5,11.2s4.5-7.5,8.5-6.2
			c4,1.2,4,10.6,4,10.6v5.602c0,0,7.899-5.602,9.699-0.602c1.7,5,1.7,8.9,1.7,8.9L580.8,243.898L580.8,243.898z" fill="url(#SVGID_25_)"/>

			<linearGradient gradientTransform="matrix(1 0 0 -1 -255.1797 -462.6816)" gradientUnits="userSpaceOnUse" id="SVGID_26_" x1="789.114" x2="787.6409" y1="-696.9648" y2="-704.7415">
			<stop  offset="0" style="stop-color:#8E8778"/>
			<stop  offset="1" style="stop-color:#000000"/>
		</linearGradient>
		<path d="M520.499,242.2c0.7-4.2,10.5-11.2,16.602-7.302c6.1,3.9,7.1,8.201,7.1,8.201L520.499,242.2z" fill="url(#SVGID_26_)"/>

			<linearGradient gradientTransform="matrix(0.9999 -0.0146 -0.0146 -0.9999 -253.0568 -380.7853)" gradientUnits="userSpaceOnUse" id="SVGID_27_" x1="809.2581" x2="806.4617" y1="-620.6479" y2="-635.4086">
			<stop  offset="0" style="stop-color:#8E8778"/>
			<stop  offset="1" style="stop-color:#000000"/>
		</linearGradient>
		<path d="M538.601,243.2c1.199-7.802,20.8-21.101,33.199-14.101s14.5,15,14.5,15L538.601,243.2z" fill="url(#SVGID_27_)"/>
	</g>
	<g>

			<linearGradient gradientTransform="matrix(1 0 0 -1 -255.1797 -462.6816)" gradientUnits="userSpaceOnUse" id="SVGID_28_" x1="1120.2356" x2="1096.6134" y1="-661.0132" y2="-713.0328">
			<stop  offset="0" style="stop-color:#958754"/>
			<stop  offset="1" style="stop-color:#000000"/>
		</linearGradient>
		<path d="M802.8,251.2c-8.5-2.302-15.301-21.4-9-26.101c6.301-4.701,13.801,0,13.801,0
			s-7.4-10.601-3.2-21.101c4.2-10.601,15.899-14.101,21.2-8.2c5.3,5.9,6.3,21.1,6.3,21.1s4.2-27,15.899-21.1
			c11.601,5.9,8.5,21.1,8.5,21.1s8.5-14.1,15.899-11.698c7.4,2.399,7.4,20,7.4,20v10.6c0,0,14.8-10.6,18-1.2
			c3.199,9.4,3.199,16.7,3.199,16.7L802.8,251.2L802.8,251.2z" fill="url(#SVGID_28_)"/>

			<linearGradient gradientTransform="matrix(1 0.0048 0.0048 -1 -255.3667 -485.7322)" gradientUnits="userSpaceOnUse" id="SVGID_29_" x1="1099.7288" x2="1096.9323" y1="-712.8145" y2="-727.576">
			<stop  offset="0" style="stop-color:#8E8778"/>
			<stop  offset="1" style="stop-color:#000000"/>
		</linearGradient>
		<path d="M814.101,247.1c1.398-7.8,21.199-20.699,33.398-13.5c12.2,7.2,14.2,15.301,14.2,15.301
			L814.101,247.1z" fill="url(#SVGID_29_)"/>

			<linearGradient gradientTransform="matrix(1 0 0 -1 -255.1797 -462.6816)" gradientUnits="userSpaceOnUse" id="SVGID_30_" x1="1187.3538" x2="1179.1993" y1="-686.4307" y2="-704.3881">
			<stop  offset="0" style="stop-color:#958754"/>
			<stop  offset="1" style="stop-color:#000000"/>
		</linearGradient>
		<path d="M898.8,251.898c-4.5-1.198-8.199-11.398-4.801-13.799c3.4-2.399,7.4,0,7.4,0s-4-5.601-1.7-11.201
			c2.3-5.6,8.5-7.5,11.4-4.398c2.8,3.1,3.399,11.2,3.399,11.2s2.3-14.302,8.5-11.2c6.199,3.1,4.5,11.2,4.5,11.2s4.5-7.5,8.5-6.2
			c4,1.2,4,10.6,4,10.6v5.602c0,0,7.899-5.602,9.699-0.602c1.7,5,1.7,8.9,1.7,8.9L898.8,251.898L898.8,251.898z" fill="url(#SVGID_30_)"/>

			<linearGradient gradientTransform="matrix(-0.9059 0 0 -1 11696.2041 -462.6816)" gradientUnits="userSpaceOnUse" id="SVGID_31_" x1="11604.8213" x2="11604.8584" y1="-655.1025" y2="-714.0613">
			<stop  offset="0" style="stop-color:#958754"/>
			<stop  offset="1" style="stop-color:#000000"/>
		</linearGradient>
		<path d="M1220.699,249.898c7.3-2.198,13.3-19.698,7.8-24c-5.5-4.299-11.899,0-11.899,0
			s6.399-9.698,2.7-19.5c-3.7-9.698-13.7-13-18.301-7.6s-5.5,19.5-5.5,19.5s-3.699-24.9-13.699-19.5
			c-10.101,5.4-7.301,19.5-7.301,19.5s-7.3-13-13.699-10.8c-6.4,2.2-6.4,18.399-6.4,18.399v9.699c0,0-12.8-9.699-15.6-1.1
			c-2.7,8.6-2.7,15.3-2.7,15.3h84.601L1220.699,249.898L1220.699,249.898z" fill="url(#SVGID_31_)"/>

			<linearGradient gradientTransform="matrix(1 0.0048 0.0048 -1 -255.3667 -485.7322)" gradientUnits="userSpaceOnUse" id="SVGID_32_" x1="1487.1155" x2="1484.319" y1="-713.6338" y2="-728.3957">
			<stop  offset="0" style="stop-color:#8E8778"/>
			<stop  offset="1" style="stop-color:#000000"/>
		</linearGradient>
		<path d="M1201.499,249.7c1.399-7.802,21.2-20.7,33.399-13.5c12.2,7.198,14.2,15.3,14.2,15.3
			L1201.499,249.7z" fill="url(#SVGID_32_)"/>

			<linearGradient gradientTransform="matrix(0.6506 0.0031 0.004 -0.8413 1942.9032 -481.6818)" gradientUnits="userSpaceOnUse" id="SVGID_33_" x1="-1033.6511" x2="-1036.4475" y1="-859.5713" y2="-874.3315">
			<stop  offset="0" style="stop-color:#8E8778"/>
			<stop  offset="1" style="stop-color:#000000"/>
		</linearGradient>
		<path d="M1249.499,250.6c0.899-6.6,13.801-17.398,21.801-11.398s9.199,12.8,9.199,12.8L1249.499,250.6z" fill="url(#SVGID_33_)"/>
	</g>
</g>
</svg>
